<svg width="13" height="13" viewBox="0 0 13 13" fill="none" xmlns="http://www.w3.org/2000/svg">
<g clip-path="url(#clip0_1414_18847)">
<path d="M8.66602 11.375V10.2917C8.66602 9.71703 8.43774 9.16593 8.03141 8.7596C7.62508 8.35327 7.07398 8.125 6.49935 8.125H2.70768C2.13305 8.125 1.58195 8.35327 1.17562 8.7596C0.769289 9.16593 0.541016 9.71703 0.541016 10.2917V11.375M9.20768 5.95833L10.291 7.04167L12.4577 4.875M6.77018 3.79167C6.77018 4.98828 5.80013 5.95833 4.60352 5.95833C3.4069 5.95833 2.43685 4.98828 2.43685 3.79167C2.43685 2.59505 3.4069 1.625 4.60352 1.625C5.80013 1.625 6.77018 2.59505 6.77018 3.79167Z" stroke="#101828" stroke-width="2" stroke-linecap="round" stroke-linejoin="round"/>
</g>
<defs>
<clipPath id="clip0_1414_18847">
<rect width="13" height="13" fill="white"/>
</clipPath>
</defs>
</svg>
