<svg width="34" height="34" viewBox="0 0 34 34" fill="none" xmlns="http://www.w3.org/2000/svg">
<path fill-rule="evenodd" clip-rule="evenodd" d="M6.32466 21.908C7.65304 20.5796 9.45472 19.8333 11.3333 19.8333H22.6667C24.5453 19.8333 26.347 20.5796 27.6753 21.908C29.0037 23.2364 29.75 25.038 29.75 26.9166V29.75C29.75 30.5324 29.1157 31.1666 28.3333 31.1666C27.5509 31.1666 26.9167 30.5324 26.9167 29.75V26.9166C26.9167 25.7895 26.4689 24.7085 25.6719 23.9114C24.8748 23.1144 23.7938 22.6666 22.6667 22.6666H11.3333C10.2062 22.6666 9.12516 23.1144 8.32813 23.9114C7.5311 24.7085 7.08333 25.7895 7.08333 26.9166V29.75C7.08333 30.5324 6.44907 31.1666 5.66667 31.1666C4.88426 31.1666 4.25 30.5324 4.25 29.75V26.9166C4.25 25.038 4.99628 23.2364 6.32466 21.908Z" fill="#FEFFFF"/>
<path fill-rule="evenodd" clip-rule="evenodd" d="M16.9993 5.66665C14.6521 5.66665 12.7493 7.56944 12.7493 9.91665C12.7493 12.2639 14.6521 14.1666 16.9993 14.1666C19.3466 14.1666 21.2493 12.2639 21.2493 9.91665C21.2493 7.56944 19.3466 5.66665 16.9993 5.66665ZM9.91602 9.91665C9.91602 6.00463 13.0873 2.83331 16.9993 2.83331C20.9114 2.83331 24.0827 6.00463 24.0827 9.91665C24.0827 13.8287 20.9114 17 16.9993 17C13.0873 17 9.91602 13.8287 9.91602 9.91665Z" fill="#FEFFFF"/>
</svg>
