<svg width="24" height="24" viewBox="0 0 24 24" fill="none" xmlns="http://www.w3.org/2000/svg">
<path fill-rule="evenodd" clip-rule="evenodd" d="M11.9967 2.30176C9.62266 2.30299 7.32647 3.14383 5.51871 4.67392C3.71095 6.20401 2.5095 8.32357 2.12919 10.6536C1.74889 12.9837 2.21451 15.3722 3.44283 17.3923C4.67114 19.4123 6.58204 20.932 8.83384 21.6797C9.33062 21.7719 9.51774 21.464 9.51774 21.2022C9.51774 20.9404 9.5078 20.1814 9.50449 19.3515C6.72251 19.9525 6.13465 18.1775 6.13465 18.1775C5.68093 17.025 5.02517 16.722 5.02517 16.722C4.11771 16.1062 5.09307 16.1177 5.09307 16.1177C6.09823 16.1885 6.62647 17.1435 6.62647 17.1435C7.51737 18.6633 8.96631 18.2236 9.53596 17.9668C9.62538 17.323 9.88536 16.885 10.1718 16.6364C7.94957 16.3861 5.61469 15.5332 5.61469 11.7232C5.60091 10.735 5.96968 9.77948 6.64469 9.05415C6.54202 8.80388 6.19923 7.79291 6.74238 6.41971C6.74238 6.41971 7.58195 6.15298 9.49291 7.43891C11.132 6.99322 12.8614 6.99322 14.5005 7.43891C16.4098 6.15298 17.2477 6.41971 17.2477 6.41971C17.7925 7.78962 17.4497 8.80059 17.347 9.05415C18.0242 9.77959 18.3937 10.7368 18.3787 11.7265C18.3787 15.5447 16.0388 16.3861 13.8133 16.6315C14.1709 16.941 14.4905 17.5453 14.4905 18.4739C14.4905 19.8043 14.4789 20.8745 14.4789 21.2022C14.4789 21.4673 14.6594 21.7768 15.1662 21.6797C17.4182 20.9319 19.3293 19.4119 20.5576 17.3916C21.7859 15.3712 22.2513 12.9823 21.8705 10.652C21.4898 8.32174 20.2878 6.20214 18.4794 4.67232C16.671 3.14249 14.3743 2.30221 12 2.30176H11.9967Z" fill="#98A2B3"/>
<path d="M8.6867 18.5315C8.6867 18.6122 8.59397 18.6814 8.47474 18.683C8.35551 18.6846 8.25781 18.6188 8.25781 18.5381C8.25781 18.4574 8.35054 18.3883 8.46977 18.3866C8.589 18.385 8.6867 18.4492 8.6867 18.5315Z" fill="#98A2B3"/>
<path d="M9.44874 18.4048C9.46364 18.4855 9.38085 18.5695 9.26162 18.5892C9.14239 18.609 9.03807 18.5612 9.02316 18.4822C9.00826 18.4032 9.09437 18.3175 9.21029 18.2961C9.3262 18.2747 9.43384 18.3241 9.44874 18.4048Z" fill="#98A2B3"/>
<path d="M7.86857 18.4756C7.84373 18.553 7.73112 18.5875 7.61852 18.5546C7.50591 18.5217 7.4314 18.4295 7.45292 18.3504C7.47445 18.2714 7.58871 18.2352 7.70297 18.2714C7.81723 18.3076 7.89009 18.3949 7.86857 18.4756Z" fill="#98A2B3"/>
<path d="M7.11778 18.1529C7.06314 18.2138 6.95219 18.1973 6.86111 18.115C6.77004 18.0327 6.7485 17.9207 6.80315 17.8614C6.8578 17.8022 6.96875 17.8186 7.06313 17.8993C7.15752 17.98 7.17574 18.0936 7.11778 18.1529Z" fill="#98A2B3"/>
<path d="M6.58283 17.5997C6.52156 17.6425 6.41723 17.5997 6.35927 17.5141C6.34324 17.4987 6.3305 17.4803 6.32179 17.4599C6.31309 17.4396 6.30859 17.4177 6.30859 17.3955C6.30859 17.3734 6.31309 17.3515 6.32179 17.3311C6.3305 17.3108 6.34324 17.2923 6.35927 17.277C6.42054 17.2358 6.52487 17.277 6.58283 17.361C6.64079 17.4449 6.64244 17.5569 6.58283 17.5997Z" fill="#98A2B3"/>
<path d="M6.18944 17.0283C6.15515 17.0455 6.11591 17.0503 6.07846 17.0419C6.041 17.0334 6.00765 17.0123 5.98411 16.9822C5.91952 16.913 5.90627 16.8175 5.95595 16.7747C6.00563 16.7319 6.09505 16.7517 6.15964 16.8208C6.22422 16.89 6.23912 16.9855 6.18944 17.0283Z" fill="#98A2B3"/>
<path d="M5.78242 16.5788C5.76089 16.6282 5.68141 16.643 5.61682 16.6084C5.55224 16.5738 5.50422 16.5096 5.52741 16.4586C5.55059 16.4075 5.62842 16.3944 5.693 16.4289C5.75758 16.4635 5.80726 16.5294 5.78242 16.5788Z" fill="#98A2B3"/>
</svg>
