<svg width="17" height="17" viewBox="0 0 17 17" fill="none" xmlns="http://www.w3.org/2000/svg">
<path d="M6.5 2L4 3V15L9 12L13.5 14.5V5V2.5L11 2H6.5Z" fill="#9D9D9D"/>
<path fill-rule="evenodd" clip-rule="evenodd" d="M4.95898 2.83335C4.77112 2.83335 4.59096 2.90798 4.45812 3.04082C4.32528 3.17366 4.25065 3.35383 4.25065 3.54169V13.6544L8.14922 11.4267C8.36698 11.3022 8.63432 11.3022 8.85208 11.4267L12.7507 13.6544V3.54169C12.7507 3.35383 12.676 3.17366 12.5432 3.04082C12.4103 2.90798 12.2302 2.83335 12.0423 2.83335H4.95898ZM3.45638 2.03909C3.8549 1.64057 4.3954 1.41669 4.95898 1.41669H12.0423C12.6059 1.41669 13.1464 1.64057 13.5449 2.03909C13.9434 2.4376 14.1673 2.9781 14.1673 3.54169V14.875C14.1673 15.1275 14.0329 15.3609 13.8145 15.4877C13.5961 15.6144 13.3268 15.6153 13.1076 15.49L8.50065 12.8575L3.89375 15.49C3.67452 15.6153 3.40518 15.6144 3.18679 15.4877C2.9684 15.3609 2.83398 15.1275 2.83398 14.875V3.54169C2.83398 2.9781 3.05787 2.4376 3.45638 2.03909Z" fill="#9D9D9D"/>
</svg>
