<svg width="11" height="11" viewBox="0 0 11 11" fill="none" xmlns="http://www.w3.org/2000/svg">
<path fill-rule="evenodd" clip-rule="evenodd" d="M0.707016 1.42614C0.895873 1.32859 1.12702 1.37369 1.26536 1.53508L3.5921 4.24961L5.10275 1.60596C5.18436 1.46315 5.33622 1.37502 5.5007 1.37502C5.66517 1.37502 5.81704 1.46315 5.89864 1.60596L7.4093 4.24961L9.73604 1.53508C9.87437 1.37369 10.1055 1.32859 10.2944 1.42614C10.4832 1.5237 10.5802 1.7383 10.5287 1.94452L9.15368 7.44452C9.10267 7.64855 8.91935 7.79169 8.70903 7.79169H2.29236C2.08205 7.79169 1.89872 7.64855 1.84772 7.44452L0.472715 1.94452C0.421161 1.7383 0.518159 1.5237 0.707016 1.42614ZM1.8329 3.60576L2.65022 6.87502H8.35117L9.16849 3.60576L7.68202 5.33997C7.58502 5.45314 7.43905 5.51207 7.29067 5.49797C7.14229 5.48387 7.01003 5.3985 6.93609 5.26909L5.5007 2.75716L4.06531 5.26909C3.99136 5.3985 3.8591 5.48387 3.71072 5.49797C3.56234 5.51207 3.41637 5.45314 3.31937 5.33997L1.8329 3.60576ZM1.83403 9.16669C1.83403 8.91356 2.03923 8.70836 2.29236 8.70836H8.70903C8.96216 8.70836 9.16736 8.91356 9.16736 9.16669C9.16736 9.41982 8.96216 9.62502 8.70903 9.62502H2.29236C2.03923 9.62502 1.83403 9.41982 1.83403 9.16669Z" fill="#EBF1FA"/>
</svg>
