<svg width="114" height="114" viewBox="0 0 114 114" fill="none" xmlns="http://www.w3.org/2000/svg">
<rect width="114" height="114" rx="30" fill="#BFDBFF"/>
<path fill-rule="evenodd" clip-rule="evenodd" d="M39.5007 27.8334C41.1115 27.8334 42.4173 29.1392 42.4173 30.75V65.75C42.4173 67.3609 41.1115 68.6667 39.5007 68.6667C37.8898 68.6667 36.584 67.3609 36.584 65.75V30.75C36.584 29.1392 37.8898 27.8334 39.5007 27.8334Z" fill="#3375CC"/>
<path fill-rule="evenodd" clip-rule="evenodd" d="M74.5007 33.6667C71.279 33.6667 68.6673 36.2784 68.6673 39.5C68.6673 42.7217 71.279 45.3334 74.5007 45.3334C77.7223 45.3334 80.334 42.7217 80.334 39.5C80.334 36.2784 77.7223 33.6667 74.5007 33.6667ZM62.834 39.5C62.834 33.0567 68.0573 27.8334 74.5007 27.8334C80.944 27.8334 86.1673 33.0567 86.1673 39.5C86.1673 45.9434 80.944 51.1667 74.5007 51.1667C68.0573 51.1667 62.834 45.9434 62.834 39.5Z" fill="#3375CC"/>
<path fill-rule="evenodd" clip-rule="evenodd" d="M39.5007 68.6667C36.279 68.6667 33.6673 71.2784 33.6673 74.5C33.6673 77.7217 36.279 80.3334 39.5007 80.3334C42.7223 80.3334 45.334 77.7217 45.334 74.5C45.334 71.2784 42.7223 68.6667 39.5007 68.6667ZM27.834 74.5C27.834 68.0567 33.0573 62.8334 39.5007 62.8334C45.944 62.8334 51.1673 68.0567 51.1673 74.5C51.1673 80.9434 45.944 86.1667 39.5007 86.1667C33.0573 86.1667 27.834 80.9434 27.834 74.5Z" fill="#3375CC"/>
<path fill-rule="evenodd" clip-rule="evenodd" d="M74.5007 45.3334C76.1115 45.3334 77.4173 46.6392 77.4173 48.25C77.4173 55.9855 74.3444 63.4042 68.8746 68.874C63.4048 74.3438 55.9861 77.4167 48.2507 77.4167C46.6398 77.4167 45.334 76.1109 45.334 74.5C45.334 72.8892 46.6398 71.5834 48.2507 71.5834C54.439 71.5834 60.374 69.1251 64.7498 64.7492C69.1257 60.3734 71.584 54.4384 71.584 48.25C71.584 46.6392 72.8898 45.3334 74.5007 45.3334Z" fill="#3375CC"/>
</svg>
