<svg width="11" height="11" viewBox="0 0 11 11" fill="none" xmlns="http://www.w3.org/2000/svg">
<path fill-rule="evenodd" clip-rule="evenodd" d="M5.29568 1.88173C5.42471 1.81721 5.57659 1.81721 5.70562 1.88173L10.2801 4.16896C10.3383 4.19658 10.3898 4.23611 10.4314 4.28442C10.5005 4.36467 10.5423 4.46913 10.5423 4.58334V7.33334C10.5423 7.58647 10.3371 7.79168 10.084 7.79168C9.83085 7.79168 9.62565 7.58647 9.62565 7.33334V5.32494L5.70562 7.28496C5.57659 7.34947 5.42471 7.34947 5.29568 7.28496L0.712345 4.99329C0.557069 4.91565 0.458984 4.75695 0.458984 4.58334C0.458984 4.40974 0.557069 4.25104 0.712345 4.1734L5.29568 1.88173ZM9.05912 4.58334L5.50065 2.80411L1.94218 4.58334L5.50065 6.36258L9.05912 4.58334Z" fill="#EBF1FA"/>
<path fill-rule="evenodd" clip-rule="evenodd" d="M2.74935 5.04166C3.00248 5.04166 3.20768 5.24686 3.20768 5.49999V7.59226C3.78932 8.0945 4.62858 8.36457 5.49935 8.36457C6.37012 8.36457 7.20938 8.0945 7.79102 7.59226V5.49999C7.79102 5.24686 7.99622 5.04166 8.24935 5.04166C8.50248 5.04166 8.70768 5.24686 8.70768 5.49999V7.79166C8.70768 7.91321 8.65939 8.02979 8.57344 8.11575C7.78054 8.90865 6.62157 9.28124 5.49935 9.28124C4.37713 9.28124 3.21816 8.90865 2.42526 8.11575C2.3393 8.02979 2.29102 7.91321 2.29102 7.79166V5.49999C2.29102 5.24686 2.49622 5.04166 2.74935 5.04166Z" fill="#EBF1FA"/>
</svg>
