<svg width="114" height="114" viewBox="0 0 114 114" fill="none" xmlns="http://www.w3.org/2000/svg">
<rect width="114" height="114" rx="30" fill="#BFDBFF"/>
<g clip-path="url(#clip0_409_16995)">
<path fill-rule="evenodd" clip-rule="evenodd" d="M26.2714 67.1047C29.0063 64.3698 32.7156 62.8334 36.5833 62.8334H59.9167C63.7844 62.8334 67.4937 64.3698 70.2286 67.1047C72.9635 69.8396 74.5 73.549 74.5 77.4167V83.25C74.5 84.8609 73.1942 86.1667 71.5833 86.1667C69.9725 86.1667 68.6667 84.8609 68.6667 83.25V77.4167C68.6667 75.0961 67.7448 72.8705 66.1039 71.2295C64.4629 69.5886 62.2373 68.6667 59.9167 68.6667H36.5833C34.2627 68.6667 32.0371 69.5886 30.3961 71.2295C28.7552 72.8705 27.8333 75.0961 27.8333 77.4167V83.25C27.8333 84.8609 26.5275 86.1667 24.9167 86.1667C23.3058 86.1667 22 84.8609 22 83.25V77.4167C22 73.549 23.5365 69.8396 26.2714 67.1047Z" fill="#3375CC"/>
<path fill-rule="evenodd" clip-rule="evenodd" d="M48.2493 33.6667C43.4169 33.6667 39.4993 37.5842 39.4993 42.4167C39.4993 47.2492 43.4169 51.1667 48.2493 51.1667C53.0818 51.1667 56.9993 47.2492 56.9993 42.4167C56.9993 37.5842 53.0818 33.6667 48.2493 33.6667ZM33.666 42.4167C33.666 34.3626 40.1952 27.8334 48.2493 27.8334C56.3035 27.8334 62.8327 34.3626 62.8327 42.4167C62.8327 50.4709 56.3035 57 48.2493 57C40.1952 57 33.666 50.4709 33.666 42.4167Z" fill="#3375CC"/>
<path fill-rule="evenodd" clip-rule="evenodd" d="M77.5093 65.3996C77.912 63.84 79.5029 62.902 81.0626 63.3047C84.1912 64.1125 86.9629 65.9365 88.9425 68.4903C90.9222 71.044 91.9976 74.1829 92.0001 77.4141L92.0001 83.2496C92.0001 84.8605 90.6942 86.1663 89.0834 86.1663C87.4726 86.1663 86.1667 84.8605 86.1667 83.2496L86.1667 77.4185C86.1667 77.4182 86.1667 77.4188 86.1667 77.4185C86.1651 75.4801 85.5198 73.5962 84.3322 72.0642C83.1444 70.5319 81.4814 69.4375 79.6042 68.9528C78.0445 68.5501 77.1066 66.9593 77.5093 65.3996Z" fill="#3375CC"/>
<path fill-rule="evenodd" clip-rule="evenodd" d="M65.8418 30.4053C66.2414 28.8449 67.8303 27.9037 69.3908 28.3033C72.5277 29.1065 75.3081 30.9308 77.2937 33.4888C79.2792 36.0467 80.3569 39.1928 80.3569 42.4309C80.3569 45.669 79.2792 48.815 77.2937 51.373C75.3081 53.9309 72.5277 55.7553 69.3908 56.5585C67.8303 56.958 66.2414 56.0169 65.8418 54.4564C65.4423 52.8959 66.3834 51.307 67.9439 50.9074C69.8261 50.4255 71.4943 49.3309 72.6856 47.7961C73.8769 46.2614 74.5236 44.3737 74.5236 42.4309C74.5236 40.488 73.8769 38.6004 72.6856 37.0656C71.4943 35.5308 69.8261 34.4362 67.9439 33.9543C66.3834 33.5548 65.4423 31.9658 65.8418 30.4053Z" fill="#3375CC"/>
</g>
<defs>
<clipPath id="clip0_409_16995">
<rect width="70" height="70" fill="white" transform="translate(22 22)"/>
</clipPath>
</defs>
</svg>
