<svg width="114" height="114" viewBox="0 0 114 114" fill="none" xmlns="http://www.w3.org/2000/svg">
<rect width="114" height="114" rx="30" fill="#BFDBFF"/>
<path fill-rule="evenodd" clip-rule="evenodd" d="M35.0214 67.1047C37.7563 64.3698 41.4656 62.8334 45.3333 62.8334H68.6667C72.5344 62.8334 76.2437 64.3698 78.9786 67.1047C81.7135 69.8396 83.25 73.549 83.25 77.4167V83.25C83.25 84.8609 81.9442 86.1667 80.3333 86.1667C78.7225 86.1667 77.4167 84.8609 77.4167 83.25V77.4167C77.4167 75.0961 76.4948 72.8705 74.8539 71.2295C73.2129 69.5886 70.9873 68.6667 68.6667 68.6667H45.3333C43.0127 68.6667 40.7871 69.5886 39.1461 71.2295C37.5052 72.8705 36.5833 75.0961 36.5833 77.4167V83.25C36.5833 84.8609 35.2775 86.1667 33.6667 86.1667C32.0558 86.1667 30.75 84.8609 30.75 83.25V77.4167C30.75 73.549 32.2865 69.8396 35.0214 67.1047Z" fill="#3375CC"/>
<path fill-rule="evenodd" clip-rule="evenodd" d="M56.9993 33.6667C52.1669 33.6667 48.2493 37.5842 48.2493 42.4167C48.2493 47.2492 52.1669 51.1667 56.9993 51.1667C61.8318 51.1667 65.7493 47.2492 65.7493 42.4167C65.7493 37.5842 61.8318 33.6667 56.9993 33.6667ZM42.416 42.4167C42.416 34.3626 48.9452 27.8334 56.9993 27.8334C65.0535 27.8334 71.5827 34.3626 71.5827 42.4167C71.5827 50.4709 65.0535 57 56.9993 57C48.9452 57 42.416 50.4709 42.416 42.4167Z" fill="#3375CC"/>
</svg>
