<svg width="24" height="24" viewBox="0 0 24 24" fill="none" xmlns="http://www.w3.org/2000/svg">
<path d="M3.0002 22C2.7402 22 2.4802 21.9 2.2902 21.71C2.0202 21.44 1.9302 21.05 2.0502 20.69L3.8202 15.37C3.2802 14.15 3.0002 12.83 3.0002 11.5C3.0002 9.74 3.4902 8.01 4.4202 6.51C5.3502 5.01 6.6702 3.8 8.2502 3.01C9.5602 2.35 11.0202 2 12.4802 2C12.4902 2 12.5002 2 12.5002 2H13.0002C15.3902 2.13 17.5802 3.11 19.2402 4.76C20.8902 6.41 21.8702 8.61 22.0002 10.94V11.49C22.0002 12.96 21.6602 14.43 20.9902 15.74C20.2002 17.32 18.9902 18.64 17.4902 19.57C15.9902 20.51 14.2702 21 12.5002 21C11.1802 21.05 9.8502 20.72 8.6302 20.18L3.3102 21.95C3.2102 21.98 3.1102 22 3.0002 22ZM12.4802 4C11.3302 4 10.1802 4.27 9.1502 4.79C7.9002 5.42 6.8602 6.37 6.1202 7.56C5.3902 8.74 5.0002 10.11 5.0002 11.5C5.0002 12.66 5.2702 13.82 5.7902 14.85C5.9102 15.09 5.9302 15.36 5.8502 15.62L4.5802 19.42L8.3802 18.15C8.6302 18.07 8.9102 18.09 9.1502 18.21C10.1802 18.73 11.3302 19 12.4802 19C12.4902 19 12.4902 19 12.5002 19C13.9002 19 15.2602 18.61 16.4502 17.88C17.6302 17.15 18.5902 16.1 19.2102 14.85C19.7302 13.82 20.0002 12.66 20.0002 11.5V11C19.9002 9.21 19.1302 7.48 17.8202 6.18C16.5202 4.88 14.7802 4.1 12.9402 4H12.5002C12.4902 4 12.4902 4 12.4802 4Z" fill="#3375CC"/>
</svg>
