<svg width="33" height="33" viewBox="0 0 33 33" fill="none" xmlns="http://www.w3.org/2000/svg">
<path fill-rule="evenodd" clip-rule="evenodd" d="M7.04492 5.59352C6.6913 5.59352 6.35216 5.73399 6.10211 5.98404C5.85206 6.23409 5.71159 6.57323 5.71159 6.92685V25.0412L8.76878 21.984C9.01883 21.734 9.35797 21.5935 9.71159 21.5935H25.7116C26.0652 21.5935 26.4043 21.453 26.6544 21.203C26.9044 20.9529 27.0449 20.6138 27.0449 20.2602V6.92685C27.0449 6.57323 26.9044 6.23409 26.6544 5.98404C26.4043 5.73399 26.0652 5.59352 25.7116 5.59352H7.04492ZM4.21649 4.09842C4.96664 3.34828 5.98406 2.92685 7.04492 2.92685H25.7116C26.7725 2.92685 27.7899 3.34828 28.54 4.09842C29.2902 4.84857 29.7116 5.86598 29.7116 6.92685V20.2602C29.7116 21.3211 29.2902 22.3385 28.54 23.0886C27.7899 23.8388 26.7725 24.2602 25.7116 24.2602H10.2639L5.32106 29.203C4.93973 29.5843 4.36624 29.6984 3.86801 29.492C3.36978 29.2856 3.04492 28.7995 3.04492 28.2602V6.92685C3.04492 5.86598 3.46635 4.84857 4.21649 4.09842Z" fill="#EBF1FA"/>
</svg>
