<svg width="114" height="114" viewBox="0 0 114 114" fill="none" xmlns="http://www.w3.org/2000/svg">
<rect width="114" height="114" rx="30" fill="#BFDBFF"/>
<path fill-rule="evenodd" clip-rule="evenodd" d="M61.375 42.4167C62.1804 42.4167 62.8333 41.7638 62.8333 40.9584C62.8333 40.153 62.1804 39.5 61.375 39.5C60.5696 39.5 59.9167 40.153 59.9167 40.9584C59.9167 41.7638 60.5696 42.4167 61.375 42.4167ZM57 40.9584C57 38.5421 58.9588 36.5834 61.375 36.5834C63.7912 36.5834 65.75 38.5421 65.75 40.9584C65.75 43.3746 63.7912 45.3334 61.375 45.3334C58.9588 45.3334 57 43.3746 57 40.9584Z" fill="#3375CC"/>
<path fill-rule="evenodd" clip-rule="evenodd" d="M73.041 54.0833C73.8464 54.0833 74.4993 53.4304 74.4993 52.625C74.4993 51.8196 73.8464 51.1667 73.041 51.1667C72.2356 51.1667 71.5827 51.8196 71.5827 52.625C71.5827 53.4304 72.2356 54.0833 73.041 54.0833ZM68.666 52.625C68.666 50.2088 70.6248 48.25 73.041 48.25C75.4573 48.25 77.416 50.2088 77.416 52.625C77.416 55.0412 75.4573 57 73.041 57C70.6248 57 68.666 55.0412 68.666 52.625Z" fill="#3375CC"/>
<path fill-rule="evenodd" clip-rule="evenodd" d="M46.791 45.3333C47.5964 45.3333 48.2493 44.6804 48.2493 43.875C48.2493 43.0696 47.5964 42.4167 46.791 42.4167C45.9856 42.4167 45.3327 43.0696 45.3327 43.875C45.3327 44.6804 45.9856 45.3333 46.791 45.3333ZM42.416 43.875C42.416 41.4588 44.3748 39.5 46.791 39.5C49.2073 39.5 51.166 41.4588 51.166 43.875C51.166 46.2912 49.2073 48.25 46.791 48.25C44.3748 48.25 42.416 46.2912 42.416 43.875Z" fill="#3375CC"/>
<path fill-rule="evenodd" clip-rule="evenodd" d="M40.959 59.9167C41.7644 59.9167 42.4173 59.2638 42.4173 58.4584C42.4173 57.653 41.7644 57 40.959 57C40.1536 57 39.5007 57.653 39.5007 58.4584C39.5007 59.2638 40.1536 59.9167 40.959 59.9167ZM36.584 58.4584C36.584 56.0421 38.5427 54.0834 40.959 54.0834C43.3752 54.0834 45.334 56.0421 45.334 58.4584C45.334 60.8746 43.3752 62.8334 40.959 62.8334C38.5427 62.8334 36.584 60.8746 36.584 58.4584Z" fill="#3375CC"/>
<path fill-rule="evenodd" clip-rule="evenodd" d="M24.916 57C24.916 39.3475 39.3469 24.9166 56.9994 24.9166C74.2089 24.9166 88.9699 37.6095 89.0593 53.6003L89.0594 53.6166C89.0593 64.1269 80.4495 72.7325 69.9406 72.7325H64.1189L64.0687 72.732C63.8182 72.7277 63.5694 72.7739 63.3371 72.8678C63.1048 72.9616 62.8938 73.1013 62.7166 73.2785C62.5395 73.4556 62.3998 73.6667 62.3059 73.899C62.212 74.1312 62.1659 74.3801 62.1702 74.6306L62.1706 74.6808C62.1706 75.3643 62.3472 75.6539 62.5903 75.8961C62.6329 75.9386 62.6743 75.9825 62.7143 76.0276C63.8732 77.3353 64.7227 79.1657 64.7227 81.2433C64.7227 85.5279 61.3838 89.0833 56.9994 89.0833C39.3469 89.0833 24.916 74.6525 24.916 57ZM56.9994 30.75C42.5685 30.75 30.7493 42.5691 30.7493 57C30.7493 71.4308 42.5685 83.25 56.9994 83.25C58.0166 83.25 58.8894 82.4537 58.8894 81.2433C58.8894 80.7907 58.7046 80.32 58.389 79.9434C57.0033 78.5191 56.3427 76.731 56.3373 74.706C56.323 73.6811 56.5134 72.6636 56.8976 71.7131C57.2848 70.7549 57.861 69.8845 58.5918 69.1537C59.3226 68.4229 60.1931 67.8467 61.1513 67.4594C62.1007 67.0757 63.1171 66.8852 64.141 66.8991H69.9406C77.2265 66.8991 83.2215 60.9084 83.226 53.6248C83.1529 41.4557 71.6424 30.75 56.9994 30.75Z" fill="#3375CC"/>
</svg>
