<svg width="114" height="114" viewBox="0 0 114 114" fill="none" xmlns="http://www.w3.org/2000/svg">
<rect width="114" height="114" rx="30" fill="#BFDBFF"/>
<path fill-rule="evenodd" clip-rule="evenodd" d="M42.5641 30.8965C46.393 27.0677 51.586 24.9166 57.0009 24.9166C62.4157 24.9166 67.6088 27.0677 71.4376 30.8965C75.2665 34.7254 77.4175 39.9185 77.4175 45.3333C77.4175 55.1119 79.509 61.1843 81.4364 64.7179C82.4041 66.4921 83.3465 67.656 84.0011 68.3469C84.3291 68.6932 84.5869 68.9228 84.7421 69.0521C84.8198 69.1168 84.8718 69.1565 84.8943 69.1732C84.8978 69.1758 84.9006 69.1779 84.9026 69.1794C85.9482 69.8976 86.4109 71.2114 86.0424 72.4285C85.6699 73.6586 84.5362 74.5 83.2509 74.5H30.7509C29.4656 74.5 28.3318 73.6586 27.9594 72.4285C27.5909 71.2114 28.0536 69.8976 29.0991 69.1794C29.1012 69.1779 29.104 69.1758 29.1075 69.1732C29.1299 69.1565 29.182 69.1168 29.2597 69.0521C29.4149 68.9228 29.6727 68.6932 30.0007 68.3469C30.6553 67.656 31.5976 66.4921 32.5653 64.7179C34.4928 61.1843 36.5842 55.1119 36.5842 45.3333C36.5842 39.9185 38.7352 34.7254 42.5641 30.8965ZM29.1286 69.1594C29.1289 69.1593 29.1291 69.1591 29.1293 69.1589C29.1293 69.159 29.1293 69.159 29.1293 69.159L29.1286 69.1594ZM37.0197 68.6666H76.982C76.7601 68.303 76.5373 67.9181 76.3154 67.5112C73.8678 63.024 71.5842 55.9714 71.5842 45.3333C71.5842 41.4656 70.0478 37.7562 67.3129 35.0213C64.5779 32.2864 60.8686 30.75 57.0009 30.75C53.1331 30.75 49.4238 32.2864 46.6889 35.0213C43.954 37.7562 42.4175 41.4656 42.4175 45.3333C42.4175 55.9714 40.134 63.024 37.6864 67.5112C37.4645 67.9181 37.2417 68.303 37.0197 68.6666Z" fill="#3375CC"/>
<path fill-rule="evenodd" clip-rule="evenodd" d="M50.4888 80.7269C51.8822 79.9186 53.667 80.3929 54.4752 81.7863C54.7316 82.2283 55.0996 82.5952 55.5424 82.8502C55.9852 83.1052 56.4872 83.2395 56.9981 83.2395C57.5091 83.2395 58.0111 83.1052 58.4539 82.8502C58.8967 82.5952 59.2647 82.2283 59.5211 81.7863C60.3293 80.3929 62.1141 79.9186 63.5075 80.7269C64.9008 81.5351 65.3752 83.3199 64.5669 84.7133C63.7977 86.0393 62.6937 87.1399 61.3654 87.905C60.0371 88.6701 58.531 89.0728 56.9981 89.0728C55.4652 89.0728 53.9592 88.6701 52.6309 87.905C51.3026 87.1399 50.1986 86.0393 49.4294 84.7133C48.6211 83.3199 49.0954 81.5351 50.4888 80.7269Z" fill="#3375CC"/>
</svg>
