<svg width="17" height="18" viewBox="0 0 17 18" fill="none" xmlns="http://www.w3.org/2000/svg">
<g clip-path="url(#clip0_431_18975)">
<path fill-rule="evenodd" clip-rule="evenodd" d="M1.03733 11.4541C1.70152 10.7899 2.60236 10.4167 3.54167 10.4167H9.20833C10.1476 10.4167 11.0485 10.7899 11.7127 11.4541C12.3769 12.1183 12.75 13.0191 12.75 13.9584V15.3751C12.75 15.7663 12.4329 16.0834 12.0417 16.0834C11.6505 16.0834 11.3333 15.7663 11.3333 15.3751V13.9584C11.3333 13.3948 11.1094 12.8543 10.7109 12.4558C10.3124 12.0573 9.77192 11.8334 9.20833 11.8334H3.54167C2.97808 11.8334 2.43758 12.0573 2.03906 12.4558C1.64055 12.8543 1.41667 13.3948 1.41667 13.9584V15.3751C1.41667 15.7663 1.09953 16.0834 0.708333 16.0834C0.317132 16.0834 0 15.7663 0 15.3751V13.9584C0 13.0191 0.373139 12.1183 1.03733 11.4541Z" fill="#575858"/>
<path fill-rule="evenodd" clip-rule="evenodd" d="M6.37565 3.33341C5.20205 3.33341 4.25065 4.28481 4.25065 5.45841C4.25065 6.63202 5.20205 7.58341 6.37565 7.58341C7.54926 7.58341 8.50065 6.63202 8.50065 5.45841C8.50065 4.28481 7.54926 3.33341 6.37565 3.33341ZM2.83398 5.45841C2.83398 3.50241 4.41964 1.91675 6.37565 1.91675C8.33166 1.91675 9.91732 3.50241 9.91732 5.45841C9.91732 7.41442 8.33166 9.00008 6.37565 9.00008C4.41964 9.00008 2.83398 7.41442 2.83398 5.45841Z" fill="#575858"/>
<path fill-rule="evenodd" clip-rule="evenodd" d="M13.4816 11.0402C13.5794 10.6614 13.9658 10.4337 14.3446 10.5315C15.1044 10.7276 15.7775 11.1706 16.2583 11.7908C16.7391 12.411 17.0002 13.1733 17.0008 13.958L17.0008 15.3752C17.0008 15.7664 16.6837 16.0835 16.2925 16.0835C15.9013 16.0835 15.5842 15.7664 15.5842 15.3752L15.5842 13.9591C15.5842 13.959 15.5842 13.9591 15.5842 13.9591C15.5838 13.4883 15.4271 13.0308 15.1386 12.6587C14.8502 12.2866 14.4463 12.0208 13.9904 11.9031C13.6116 11.8053 13.3838 11.419 13.4816 11.0402Z" fill="#575858"/>
<path fill-rule="evenodd" clip-rule="evenodd" d="M10.6473 2.5416C10.7443 2.16262 11.1302 1.93406 11.5092 2.03109C12.271 2.22615 12.9463 2.66922 13.4285 3.29043C13.9107 3.91165 14.1724 4.67568 14.1724 5.46208C14.1724 6.24849 13.9107 7.01252 13.4285 7.63374C12.9463 8.25495 12.271 8.69802 11.5092 8.89307C11.1302 8.99011 10.7443 8.76155 10.6473 8.38257C10.5503 8.00359 10.7788 7.61771 11.1578 7.52068C11.6149 7.40364 12.02 7.13781 12.3094 6.76508C12.5987 6.39234 12.7557 5.93392 12.7557 5.46208C12.7557 4.99024 12.5987 4.53182 12.3094 4.15909C12.02 3.78636 11.6149 3.52053 11.1578 3.40349C10.7788 3.30646 10.5503 2.92058 10.6473 2.5416Z" fill="#575858"/>
</g>
<defs>
<clipPath id="clip0_431_18975">
<rect width="17" height="17" fill="white" transform="translate(0 0.5)"/>
</clipPath>
</defs>
</svg>
