<svg width="17" height="17" viewBox="0 0 17 17" fill="none" xmlns="http://www.w3.org/2000/svg">
<g clip-path="url(#clip0_409_18821)">
<path fill-rule="evenodd" clip-rule="evenodd" d="M8.50065 2.12499C4.97984 2.12499 2.12565 4.97918 2.12565 8.49999C2.12565 12.0208 4.97984 14.875 8.50065 14.875C12.0215 14.875 14.8757 12.0208 14.8757 8.49999C14.8757 4.97918 12.0215 2.12499 8.50065 2.12499ZM0.708984 8.49999C0.708984 4.19678 4.19743 0.708328 8.50065 0.708328C12.8039 0.708328 16.2923 4.19678 16.2923 8.49999C16.2923 12.8032 12.8039 16.2917 8.50065 16.2917C4.19743 16.2917 0.708984 12.8032 0.708984 8.49999Z" fill="#EBF1FA"/>
<path fill-rule="evenodd" clip-rule="evenodd" d="M8.49935 4.95833C8.89055 4.95833 9.20768 5.27546 9.20768 5.66666V11.3333C9.20768 11.7245 8.89055 12.0417 8.49935 12.0417C8.10815 12.0417 7.79102 11.7245 7.79102 11.3333V5.66666C7.79102 5.27546 8.10815 4.95833 8.49935 4.95833Z" fill="#EBF1FA"/>
<path fill-rule="evenodd" clip-rule="evenodd" d="M4.95898 8.50001C4.95898 8.1088 5.27612 7.79167 5.66732 7.79167H11.334C11.7252 7.79167 12.0423 8.1088 12.0423 8.50001C12.0423 8.89121 11.7252 9.20834 11.334 9.20834H5.66732C5.27612 9.20834 4.95898 8.89121 4.95898 8.50001Z" fill="#EBF1FA"/>
</g>
<defs>
<clipPath id="clip0_409_18821">
<rect width="17" height="17" fill="white"/>
</clipPath>
</defs>
</svg>
