<svg width="114" height="114" viewBox="0 0 114 114" fill="none" xmlns="http://www.w3.org/2000/svg">
<rect width="114" height="114" rx="30" fill="#BFDBFF"/>
<path fill-rule="evenodd" clip-rule="evenodd" d="M48.25 39.5C48.25 37.8892 49.5558 36.5834 51.1667 36.5834H83.25C84.8608 36.5834 86.1667 37.8892 86.1667 39.5C86.1667 41.1109 84.8608 42.4167 83.25 42.4167H51.1667C49.5558 42.4167 48.25 41.1109 48.25 39.5Z" fill="#3375CC"/>
<path fill-rule="evenodd" clip-rule="evenodd" d="M48.25 57C48.25 55.3892 49.5558 54.0834 51.1667 54.0834H83.25C84.8608 54.0834 86.1667 55.3892 86.1667 57C86.1667 58.6109 84.8608 59.9167 83.25 59.9167H51.1667C49.5558 59.9167 48.25 58.6109 48.25 57Z" fill="#3375CC"/>
<path fill-rule="evenodd" clip-rule="evenodd" d="M48.25 74.5C48.25 72.8892 49.5558 71.5834 51.1667 71.5834H83.25C84.8608 71.5834 86.1667 72.8892 86.1667 74.5C86.1667 76.1109 84.8608 77.4167 83.25 77.4167H51.1667C49.5558 77.4167 48.25 76.1109 48.25 74.5Z" fill="#3375CC"/>
<path fill-rule="evenodd" clip-rule="evenodd" d="M37.4383 34.5209C38.5773 33.3819 40.424 33.3819 41.563 34.5209C42.7021 35.6599 42.7021 37.5067 41.563 38.6457L35.7297 44.479C34.5907 45.618 32.744 45.618 31.6049 44.479L28.6883 41.5624C27.5492 40.4233 27.5492 38.5766 28.6883 37.4376C29.8273 36.2985 31.674 36.2985 32.813 37.4376L33.6673 38.2918L37.4383 34.5209Z" fill="#3375CC"/>
<path fill-rule="evenodd" clip-rule="evenodd" d="M37.4383 52.0209C38.5773 50.8819 40.424 50.8819 41.563 52.0209C42.7021 53.1599 42.7021 55.0067 41.563 56.1457L35.7297 61.979C34.5907 63.118 32.744 63.118 31.6049 61.979L28.6883 59.0624C27.5492 57.9233 27.5492 56.0766 28.6883 54.9376C29.8273 53.7985 31.674 53.7985 32.813 54.9376L33.6673 55.7918L37.4383 52.0209Z" fill="#3375CC"/>
<path fill-rule="evenodd" clip-rule="evenodd" d="M37.4383 69.5209C38.5773 68.3819 40.424 68.3819 41.563 69.5209C42.7021 70.6599 42.7021 72.5067 41.563 73.6457L35.7297 79.479C34.5907 80.618 32.744 80.618 31.6049 79.479L28.6883 76.5624C27.5492 75.4233 27.5492 73.5766 28.6883 72.4376C29.8273 71.2985 31.674 71.2985 32.813 72.4376L33.6673 73.2918L37.4383 69.5209Z" fill="#3375CC"/>
</svg>
