<svg width="114" height="114" viewBox="0 0 114 114" fill="none" xmlns="http://www.w3.org/2000/svg">
<rect width="114" height="114" rx="30" fill="#BFDBFF"/>
<path fill-rule="evenodd" clip-rule="evenodd" d="M33.3128 27.4794C34.9538 25.8385 37.1794 24.9166 39.5 24.9166H64.2917C65.0652 24.9166 65.8071 25.2239 66.3541 25.7709L82.3957 41.8126C82.9427 42.3595 83.25 43.1014 83.25 43.875V80.3333C83.25 82.6539 82.3281 84.8795 80.6872 86.5205C79.0462 88.1614 76.8206 89.0833 74.5 89.0833H33.6667C32.0558 89.0833 30.75 87.7775 30.75 86.1666C30.75 84.5558 32.0558 83.25 33.6667 83.25H74.5C75.2735 83.25 76.0154 82.9427 76.5624 82.3957C77.1094 81.8487 77.4167 81.1068 77.4167 80.3333V45.0831L63.0835 30.75H39.5C38.7265 30.75 37.9846 31.0573 37.4376 31.6042C36.8906 32.1512 36.5833 32.8931 36.5833 33.6666V45.3333C36.5833 46.9441 35.2775 48.25 33.6667 48.25C32.0558 48.25 30.75 46.9441 30.75 45.3333V33.6666C30.75 31.346 31.6719 29.1204 33.3128 27.4794Z" fill="#3375CC"/>
<path fill-rule="evenodd" clip-rule="evenodd" d="M62.8327 24.9166C64.4435 24.9166 65.7493 26.2225 65.7493 27.8333V42.4166H80.3327C81.9435 42.4166 83.2493 43.7225 83.2493 45.3333C83.2493 46.9441 81.9435 48.25 80.3327 48.25H62.8327C61.2219 48.25 59.916 46.9441 59.916 45.3333V27.8333C59.916 26.2225 61.2219 24.9166 62.8327 24.9166Z" fill="#3375CC"/>
<path fill-rule="evenodd" clip-rule="evenodd" d="M50.313 57.8543C51.4521 58.9933 51.4521 60.84 50.313 61.9791L38.6464 73.6457C37.5073 74.7848 35.6606 74.7848 34.5216 73.6457L28.6883 67.8124C27.5492 66.6734 27.5492 64.8266 28.6883 63.6876C29.8273 62.5486 31.674 62.5486 32.813 63.6876L36.584 67.4585L46.1883 57.8543C47.3273 56.7152 49.174 56.7152 50.313 57.8543Z" fill="#3375CC"/>
</svg>
