<svg width="114" height="114" viewBox="0 0 114 114" fill="none" xmlns="http://www.w3.org/2000/svg">
<rect width="114" height="114" rx="30" fill="#BFDBFF"/>
<path fill-rule="evenodd" clip-rule="evenodd" d="M55.695 33.9745C56.5161 33.564 57.4826 33.564 58.3037 33.9745L87.4139 48.5296C87.7846 48.7054 88.1123 48.957 88.377 49.2644C88.8168 49.7751 89.0827 50.4398 89.0827 51.1666V68.6666C89.0827 70.2775 87.7769 71.5833 86.166 71.5833C84.5552 71.5833 83.2494 70.2775 83.2494 68.6666V55.8859L58.3037 68.3587C57.4826 68.7693 56.5161 68.7693 55.695 68.3587L26.5283 53.7754C25.5402 53.2813 24.916 52.2714 24.916 51.1666C24.916 50.0619 25.5402 49.0519 26.5283 48.5579L55.695 33.9745ZM79.6442 51.1666L56.9994 39.8442L34.3545 51.1666L56.9994 62.489L79.6442 51.1666Z" fill="#3375CC"/>
<path fill-rule="evenodd" clip-rule="evenodd" d="M39.5007 54.0834C41.1115 54.0834 42.4173 55.3892 42.4173 57V70.3145C46.1186 73.5105 51.4594 75.2292 57.0007 75.2292C62.5419 75.2292 67.8827 73.5105 71.584 70.3145V57C71.584 55.3892 72.8898 54.0834 74.5007 54.0834C76.1115 54.0834 77.4173 55.3892 77.4173 57V71.5834C77.4173 72.3569 77.11 73.0988 76.563 73.6458C71.5173 78.6915 64.1421 81.0625 57.0007 81.0625C49.8593 81.0625 42.484 78.6915 37.4383 73.6458C36.8913 73.0988 36.584 72.3569 36.584 71.5834V57C36.584 55.3892 37.8898 54.0834 39.5007 54.0834Z" fill="#3375CC"/>
</svg>
