<svg width="33" height="32" viewBox="0 0 33 32" fill="none" xmlns="http://www.w3.org/2000/svg">
<g clip-path="url(#clip0_409_18538)">
<path fill-rule="evenodd" clip-rule="evenodd" d="M2.6577 20.6193C3.90794 19.3691 5.60363 18.6667 7.37174 18.6667H18.0384C19.8065 18.6667 21.5022 19.3691 22.7525 20.6193C24.0027 21.8695 24.7051 23.5652 24.7051 25.3333V28C24.7051 28.7364 24.1081 29.3333 23.3717 29.3333C22.6354 29.3333 22.0384 28.7364 22.0384 28V25.3333C22.0384 24.2725 21.617 23.2551 20.8668 22.5049C20.1167 21.7548 19.0993 21.3333 18.0384 21.3333H7.37174C6.31088 21.3333 5.29346 21.7548 4.54332 22.5049C3.79317 23.2551 3.37174 24.2725 3.37174 25.3333V28C3.37174 28.7364 2.77479 29.3333 2.03841 29.3333C1.30203 29.3333 0.705078 28.7364 0.705078 28V25.3333C0.705078 23.5652 1.40746 21.8695 2.6577 20.6193Z" fill="#EBF1FA"/>
<path fill-rule="evenodd" clip-rule="evenodd" d="M12.7057 5.33333C10.4966 5.33333 8.70573 7.12419 8.70573 9.33333C8.70573 11.5425 10.4966 13.3333 12.7057 13.3333C14.9149 13.3333 16.7057 11.5425 16.7057 9.33333C16.7057 7.12419 14.9149 5.33333 12.7057 5.33333ZM6.03906 9.33333C6.03906 5.65143 9.02383 2.66666 12.7057 2.66666C16.3876 2.66666 19.3724 5.65143 19.3724 9.33333C19.3724 13.0152 16.3876 16 12.7057 16C9.02383 16 6.03906 13.0152 6.03906 9.33333Z" fill="#EBF1FA"/>
<path fill-rule="evenodd" clip-rule="evenodd" d="M26.0817 19.84C26.2658 19.127 26.9931 18.6983 27.7061 18.8823C29.1363 19.2516 30.4033 20.0854 31.3083 21.2529C32.2133 22.4203 32.7049 23.8552 32.7061 25.3323L32.7061 28C32.7061 28.7364 32.1091 29.3333 31.3727 29.3333C30.6363 29.3333 30.0394 28.7364 30.0394 28L30.0394 25.3343C30.0394 25.3342 30.0394 25.3345 30.0394 25.3343C30.0386 24.4482 29.7437 23.587 29.2008 22.8866C28.6578 22.1862 27.8975 21.6859 27.0394 21.4643C26.3264 21.2802 25.8976 20.553 26.0817 19.84Z" fill="#EBF1FA"/>
<path fill-rule="evenodd" clip-rule="evenodd" d="M20.7471 3.84262C20.9297 3.12925 21.6561 2.69902 22.3695 2.88167C23.8035 3.24884 25.0745 4.08284 25.9822 5.25219C26.8899 6.42154 27.3825 7.85972 27.3825 9.34C27.3825 10.8203 26.8899 12.2585 25.9822 13.4278C25.0745 14.5972 23.8035 15.4312 22.3695 15.7983C21.6561 15.981 20.9297 15.5508 20.7471 14.8374C20.5644 14.124 20.9946 13.3977 21.708 13.215C22.5684 12.9947 23.331 12.4943 23.8757 11.7927C24.4203 11.0911 24.7159 10.2282 24.7159 9.34C24.7159 8.45184 24.4203 7.58892 23.8757 6.88732C23.3311 6.18571 22.5684 5.68531 21.708 5.465C20.9946 5.28235 20.5644 4.55599 20.7471 3.84262Z" fill="#EBF1FA"/>
</g>
<defs>
<clipPath id="clip0_409_18538">
<rect width="32" height="32" fill="white" transform="translate(0.705078)"/>
</clipPath>
</defs>
</svg>
