<svg width="33" height="33" viewBox="0 0 33 33" fill="none" xmlns="http://www.w3.org/2000/svg">
<path fill-rule="evenodd" clip-rule="evenodd" d="M6.33153 20.8795C7.58177 19.6292 9.27746 18.9268 11.0456 18.9268H21.7122C23.4804 18.9268 25.176 19.6292 26.4263 20.8795C27.6765 22.1297 28.3789 23.8254 28.3789 25.5935V28.2602C28.3789 28.9966 27.782 29.5935 27.0456 29.5935C26.3092 29.5935 25.7122 28.9966 25.7122 28.2602V25.5935C25.7122 24.5327 25.2908 23.5152 24.5407 22.7651C23.7905 22.0149 22.7731 21.5935 21.7122 21.5935H11.0456C9.98471 21.5935 8.96729 22.0149 8.21715 22.7651C7.467 23.5152 7.04557 24.5327 7.04557 25.5935V28.2602C7.04557 28.9966 6.44862 29.5935 5.71224 29.5935C4.97586 29.5935 4.37891 28.9966 4.37891 28.2602V25.5935C4.37891 23.8254 5.08129 22.1297 6.33153 20.8795Z" fill="#EBF1FA"/>
<path fill-rule="evenodd" clip-rule="evenodd" d="M16.3796 5.59352C14.1704 5.59352 12.3796 7.38438 12.3796 9.59352C12.3796 11.8027 14.1704 13.5935 16.3796 13.5935C18.5887 13.5935 20.3796 11.8027 20.3796 9.59352C20.3796 7.38438 18.5887 5.59352 16.3796 5.59352ZM9.71289 9.59352C9.71289 5.91162 12.6977 2.92685 16.3796 2.92685C20.0615 2.92685 23.0462 5.91162 23.0462 9.59352C23.0462 13.2754 20.0615 16.2602 16.3796 16.2602C12.6977 16.2602 9.71289 13.2754 9.71289 9.59352Z" fill="#EBF1FA"/>
</svg>
